<svg width="16" height="14" viewBox="0 0 16 14" fill="none" xmlns="http://www.w3.org/2000/svg">
<path d="M11.3333 6.20297C11.3333 5.97256 11.3333 5.85735 11.368 5.75465C11.4687 5.45629 11.7344 5.34051 12.0006 5.21926C12.2999 5.08295 12.4495 5.01479 12.5978 5.0028C12.7661 4.98919 12.9347 5.02545 13.0786 5.10619C13.2693 5.21323 13.4023 5.41662 13.5385 5.58201C14.1674 6.3459 14.4819 6.72784 14.5969 7.14904C14.6898 7.48894 14.6898 7.84439 14.5969 8.1843C14.4291 8.79862 13.8989 9.31357 13.5064 9.79026C13.3057 10.0341 13.2053 10.156 13.0786 10.2271C12.9347 10.3079 12.7661 10.3441 12.5978 10.3305C12.4495 10.3185 12.2999 10.2504 12.0006 10.1141C11.7344 9.99283 11.4687 9.87704 11.368 9.57869C11.3333 9.47598 11.3333 9.36078 11.3333 9.13037V6.20297Z" stroke="#64748B"/>
<path d="M4.66675 6.20292C4.66675 5.91275 4.6586 5.65198 4.42402 5.44797C4.3387 5.37377 4.22558 5.32225 3.99935 5.2192C3.70009 5.0829 3.55045 5.01474 3.40219 5.00275C2.95736 4.96677 2.71803 5.27038 2.4615 5.58196C1.83258 6.34585 1.51812 6.72779 1.40306 7.14899C1.3102 7.48889 1.3102 7.84434 1.40306 8.18425C1.57088 8.79857 2.10109 9.31352 2.49356 9.79021C2.74094 10.0907 2.97726 10.3648 3.40219 10.3305C3.55045 10.3185 3.70009 10.2503 3.99935 10.114C4.22558 10.011 4.3387 9.95946 4.42402 9.88526C4.6586 9.68126 4.66675 9.42048 4.66675 9.13032V6.20292Z" stroke="#64748B"/>
<path d="M3.33325 5C3.33325 2.79086 5.42259 1 7.99992 1C10.5772 1 12.6666 2.79086 12.6666 5" stroke="#64748B" stroke-linecap="square" stroke-linejoin="round"/>
<path d="M12.6667 10.3333V10.8667C12.6667 12.0449 11.4728 13 10.0001 13H8.66675" stroke="#64748B" stroke-linecap="round" stroke-linejoin="round"/>
</svg>
